<svg id="Layer_1" data-name="Layer 1" xmlns="http://www.w3.org/2000/svg" viewBox="0 0 3297.66 413.81"><defs><style>.cls-1{fill:#fff;}</style></defs><title>fit-O-matic</title><g id="xGIvFz.tif"><path class="cls-1" d="M1189.5,375.45c-1.23-.71-.75-2.14-.74-3.3.05-5-2.1-8.79-6.61-10.89a11.81,11.81,0,0,0-13.17,1.66,44.92,44.92,0,0,1-4.7,3.77,23.55,23.55,0,0,1-5.26,2.15c-1.52.47-2.2-.08-2.68-1.63a14.06,14.06,0,0,1-.2-7.21c.41-1.93.86-3.86,1.24-5.8a11.45,11.45,0,0,0-7-12.65,11.88,11.88,0,0,0-11.37.82,31.26,31.26,0,0,1-5.73,2.92,21.14,21.14,0,0,1-5.21.75c-1,.08-1.57-.51-1.73-1.54a12.82,12.82,0,0,1,.75-6.76c.72-1.84,1.55-3.64,2.31-5.47a11.81,11.81,0,0,0-9.17-16.52,11.94,11.94,0,0,0-6.23.62c-3.09,1.14-6.15,2.37-9.58,2.06-3.27-.29-3.81-.9-3.25-4.1a15,15,0,0,1,2.43-5.71c.94-1.42,1.91-2.81,2.81-4.26a11.75,11.75,0,0,0-9.17-18.09,37.75,37.75,0,0,0-6.81.63,15.19,15.19,0,0,1-8.07-1,1.84,1.84,0,0,1-1.19-2.41,14.2,14.2,0,0,1,3.68-6.43q2-2,3.91-4a11.49,11.49,0,0,0,0-15.92,12.42,12.42,0,0,0-9.13-4.07,46.6,46.6,0,0,1-7.12-.69,15,15,0,0,1-4.06-1.8c-1.1-.59-1.26-1.39-.73-2.56a14.3,14.3,0,0,1,4.77-5.67,57.49,57.49,0,0,0,6.25-4.82,11.31,11.31,0,0,0,1.66-13.48,12,12,0,0,0-8.7-6.31,29.43,29.43,0,0,1-6.1-1.67,21.27,21.27,0,0,1-4.4-2.9c-.9-.68-.91-1.43-.28-2.37a14.29,14.29,0,0,1,6-5c1.67-.78,3.34-1.54,5-2.34a11.47,11.47,0,0,0,5.78-14.51,12.09,12.09,0,0,0-7.13-7.39,42.34,42.34,0,0,1-6.39-3.22,14.76,14.76,0,0,1-3.13-3.15c-.77-.92-.6-1.79.29-2.66a14.18,14.18,0,0,1,6.91-3.63c1.82-.43,3.65-.86,5.44-1.41a11.69,11.69,0,0,0,7.29-15.77,12.21,12.21,0,0,0-4.91-5.89,38.14,38.14,0,0,1-5.49-4.09,18.36,18.36,0,0,1-2.84-4.06c-.59-1-.29-1.74.68-2.39a13.36,13.36,0,0,1,6.73-2.28c1.9-.13,3.81-.21,5.71-.37,9.66-.79,13.08-10.22,10-17a15.14,15.14,0,0,0-2.92-4c-2.27-2.38-4.84-4.48-6.11-7.68s-.94-3.88,2.37-4.77c2.77-.75,5.52-.28,8.28,0,2.31.27,4.59.67,6.93.1a11,11,0,0,0,8.39-7.86,12.11,12.11,0,0,0-2.09-11.69c-1.87-2.41-3.67-4.91-4.26-8a19.89,19.89,0,0,1-.32-2.27,1.6,1.6,0,0,1,1.45-1.93,13.9,13.9,0,0,1,7.1.29c1.82.54,3.65,1.1,5.43,1.76,6.82,2.49,15.73-2.22,15.63-11.91a12.82,12.82,0,0,0-1.35-5.3,34.1,34.1,0,0,1-2.28-5.57,22.73,22.73,0,0,1-.5-5.45c0-1.35.63-1.79,2-1.82a14.48,14.48,0,0,1,7.56,2q2.09,1.17,4.2,2.3c4.63,2.48,9.07,2,13.18-1.11a12.38,12.38,0,0,0,4.07-13c-.82-3-1.8-5.94-1.26-9.1a21.77,21.77,0,0,1,.58-2.64,1.67,1.67,0,0,1,2.08-1.22,14.84,14.84,0,0,1,7.32,3.51c1.51,1.23,3,2.44,4.59,3.6a11.39,11.39,0,0,0,13.92-.48A12.49,12.49,0,0,0,1189.6,12c-.39-3.46-.49-6.93,1.09-10.22.93-1.93,1.53-2.19,3.5-1.35a15.07,15.07,0,0,1,5.51,4.18c1.42,1.65,2.85,3.31,4.38,4.87a11.52,11.52,0,0,0,15,1A12.77,12.77,0,0,0,1224.37.3a17.54,17.54,0,0,1,2.28-8.35c1.71-2.78,2.45-2.94,5-1a17.33,17.33,0,0,1,4.41,5.47c.8,1.42,1.6,2.85,2.47,4.23a11.77,11.77,0,0,0,14.86,4.21,12.15,12.15,0,0,0,6.93-8.34c.83-3.28,2-6.46,4.48-8.92.32-.31.64-.63,1-.92a1.58,1.58,0,0,1,2.39,0c2.75,2.24,4,5.34,5.06,8.57a31.33,31.33,0,0,0,1.87,4.74,11.5,11.5,0,0,0,13.42,5.54,12.26,12.26,0,0,0,8.09-6.81c1.43-3.15,3.2-6.1,6.18-8.09.32-.21.63-.43,1-.62a1.69,1.69,0,0,1,2.39.47,14,14,0,0,1,3,6.57c.34,2.16.59,4.34,1,6.48,1.53,7.36,9,11.25,16.23,8.43a12.64,12.64,0,0,0,5.38-4.13,40,40,0,0,1,4.49-5,17.35,17.35,0,0,1,4.1-2.4,1.76,1.76,0,0,1,2.5,1,13.33,13.33,0,0,1,1.64,6.6c0,2.15-.16,4.3-.17,6.46,0,4.83,2,8.52,6.37,10.62a11.8,11.8,0,0,0,12.8-1c1.48-1.08,2.83-2.35,4.23-3.54a14.24,14.24,0,0,1,6.48-3.16,2.1,2.1,0,0,1,2.78,1.75,14.19,14.19,0,0,1,.16,7c-.41,1.9-.85,3.79-1.26,5.69a11.73,11.73,0,0,0,9.5,13.87,12.13,12.13,0,0,0,8.45-1.34,68.41,68.41,0,0,1,6.95-3.51,12.33,12.33,0,0,1,3.87-.66,2.15,2.15,0,0,1,2.49,2.17,14.83,14.83,0,0,1-1.4,7.7c-.76,1.75-1.58,3.49-2.19,5.29a11.84,11.84,0,0,0,10,15.59,12.62,12.62,0,0,0,6-.79c2.79-1,5.56-2.24,8.64-2.09.76,0,1.53.09,2.28.21a2.19,2.19,0,0,1,2,2.53,13.6,13.6,0,0,1-2.3,6.61q-1.39,2.14-2.83,4.24a12,12,0,0,0-.4,13.52,12.53,12.53,0,0,0,12.81,5.29,48.93,48.93,0,0,1,7-.65,11.8,11.8,0,0,1,3.46.65,2.4,2.4,0,0,1,1.82,3.35,13.38,13.38,0,0,1-3.1,5.36c-1.37,1.47-2.78,2.91-4.18,4.36a11.69,11.69,0,0,0-2.51,12.81,12.27,12.27,0,0,0,11.26,7.55c3.11,0,6.27-.09,9.21,1.26a17.44,17.44,0,0,1,1.84,1,2.43,2.43,0,0,1,.88,3.16,14,14,0,0,1-4.54,5.21c-1.49,1.08-3,2.13-4.51,3.18a11.81,11.81,0,0,0-.87,18.81,12.14,12.14,0,0,0,5.82,2.82c3.47.67,7,1.28,9.81,3.73.7.61,1.4,1.21,1.24,2.24a3.88,3.88,0,0,1-.57,1.69,13.83,13.83,0,0,1-5.37,4.18c-1.92.89-3.85,1.76-5.74,2.72a11.48,11.48,0,0,0-5.39,14.41,11.84,11.84,0,0,0,7.12,7.26,31.21,31.21,0,0,1,5.62,2.68,20.72,20.72,0,0,1,3.69,3.31,2.43,2.43,0,0,1-.24,3.27,14.09,14.09,0,0,1-6.29,3.32c-1.75.45-3.5.87-5.25,1.33-4.77,1.26-7.93,4.26-8.77,9.13a11.8,11.8,0,0,0,5.18,12.51c2.16,1.49,4.6,2.62,6.32,4.7a21.11,21.11,0,0,1,1.84,2.51c1.08,1.8.65,3.22-1.22,4.2a15.81,15.81,0,0,1-6.38,1.72,61.35,61.35,0,0,0-7.14.67,11.32,11.32,0,0,0-9,10.49,12.23,12.23,0,0,0,4.14,10.33c2.09,1.92,4.31,3.76,5.47,6.47.26.61.54,1.21.75,1.83a2.58,2.58,0,0,1-1.68,3.47,13.67,13.67,0,0,1-6.25.74c-1.79-.19-3.59-.41-5.38-.65-5.11-.66-9.72,1.45-12.09,5.61a12.33,12.33,0,0,0,.87,13.71c1.61,2,3.28,4.07,4,6.63a20.23,20.23,0,0,1,.64,2.62c.3,2-.61,3-2.58,3.32-3,.44-5.78-.36-8.57-1.26-1.39-.45-2.76-.94-4.18-1.28a11.7,11.7,0,0,0-13.58,8,12.64,12.64,0,0,0,.77,9.78,42.84,42.84,0,0,1,2.46,6.38,11.28,11.28,0,0,1,.23,3.51,2.36,2.36,0,0,1-2.66,2.48,13.73,13.73,0,0,1-6.39-1.65c-1.81-1-3.6-2-5.44-2.86a11.67,11.67,0,0,0-13.76,2.6,12.06,12.06,0,0,0-2.79,12c1,3.27,1.74,6.55,1,10a2.77,2.77,0,0,1-3.63,2.32,19.09,19.09,0,0,1-7.39-4.12c-1.24-1-2.47-2-3.79-2.93a11.48,11.48,0,0,0-13.41.75,12.34,12.34,0,0,0-4.69,11.6c.41,3.36.44,6.73-1.12,9.9a2.31,2.31,0,0,1-3.3,1.32,14.09,14.09,0,0,1-5.4-3.81,73.06,73.06,0,0,0-5.2-5.67,11.46,11.46,0,0,0-14.25-.55,12.1,12.1,0,0,0-5.3,9.34c-.22,3.18-.56,6.39-2.46,9.14-.57.83-1,1.93-2.23,2a2.76,2.76,0,0,1-1.37-.24,13.59,13.59,0,0,1-5-5c-1-1.71-2-3.43-3-5.14a11.62,11.62,0,0,0-15-4.5,12.17,12.17,0,0,0-6.9,8.22c-.72,2.53-1.37,5.12-3.08,7.23a28.62,28.62,0,0,1-2.09,2.31,1.9,1.9,0,0,1-2.71.07,13.94,13.94,0,0,1-4.14-6,63.59,63.59,0,0,0-2.66-7,11.3,11.3,0,0,0-12.45-5.87,12.17,12.17,0,0,0-9,6.87c-1.38,2.85-2.87,5.65-5.52,7.59a17.55,17.55,0,0,1-1.46,1,1.91,1.91,0,0,1-2.66-.53,16.1,16.1,0,0,1-3.17-8.14,38.4,38.4,0,0,0-1.19-6.22,11.4,11.4,0,0,0-12.07-7.62,12.68,12.68,0,0,0-8.15,4c-1.28,1.35-2.34,2.92-3.56,4.33a13.61,13.61,0,0,1-5.42,3.76c-1.46.57-2.19.29-2.91-1.12a15,15,0,0,1-1.53-8C1188.67,376.08,1189.18,375.8,1189.5,375.45ZM1097,192a164.26,164.26,0,0,0,1.7,25.43,11.81,11.81,0,0,0,14.86,10.23c5.54-1.29,11.12-2.47,16.68-3.68a2.74,2.74,0,0,1,3.48,2.13c.45,1.68.88,3.36,1.37,5a150.21,150.21,0,0,0,13.05,30.92,2.59,2.59,0,0,1-.81,3.64c-.39.29-.81.54-1.22.79-4.74,2.89-9.5,5.76-14.22,8.68a11.46,11.46,0,0,0-3.61,16,150.09,150.09,0,0,0,16.23,19.64,160.32,160.32,0,0,0,22.5,19.61,175.38,175.38,0,0,0,21.41,13.24,165.85,165.85,0,0,0,23.83,10.16,172,172,0,0,0,26.1,6.68c6,1,13-4.13,13.35-10.64.34-5.85,1.09-11.68,1.67-17.52a2.46,2.46,0,0,1,2.79-2.43l.94,0a153.07,153.07,0,0,0,31-1.43c2.26-.33,4.51-.8,6.76-1.22,1.93-.36,3,.27,3.49,2.17.08.3.15.61.22.91,1.28,5.4,2.54,10.81,3.84,16.21a11.87,11.87,0,0,0,15.18,8.39,180.42,180.42,0,0,0,22.61-9,167.37,167.37,0,0,0,30.72-19.07,171,171,0,0,0,26.76-26.13,167.62,167.62,0,0,0,18.7-28,11.67,11.67,0,0,0-5.88-16.72q-7.88-3.42-15.75-6.86a2.7,2.7,0,0,1-1.59-3.82c.34-.91.71-1.81,1-2.72a142.31,142.31,0,0,0,8.42-34.83,2.56,2.56,0,0,1,3.12-2.53c5.88.47,11.76,1,17.65,1.4A11.77,11.77,0,0,0,1436,196.06a104.19,104.19,0,0,0-.14-11,136.16,136.16,0,0,0-2.08-19.34c-.65-3.82-1.6-7.59-2.48-11.37-.75-3.24-1.48-6.49-2.39-9.68a164.42,164.42,0,0,0-20.79-44.45,176.68,176.68,0,0,0-20.47-25.44,11.83,11.83,0,0,0-17,.53l-11.64,13.2c-1.39,1.58-2.75,1.61-4.42.32-3.4-2.63-6.8-5.28-10.33-7.75A135.81,135.81,0,0,0,1322,68.35a2.53,2.53,0,0,1-1.44-3.67c1.73-4.2,3.52-8.39,5.23-12.6a41.45,41.45,0,0,0,2.38-6.54c1-4.69-1.79-10.89-7.91-13a158.85,158.85,0,0,0-19.41-5.15,145.32,145.32,0,0,0-21.22-3c-4.36-.24-8.73-.53-13.1-.61a8,8,0,0,0-7,3.52,5.59,5.59,0,0,1-8.87.75,8.54,8.54,0,0,0-8-2.59c-6.2,1.16-12.44,2.23-18.56,3.74a168.72,168.72,0,0,0-32.68,12c-5.6,2.69-9.51,10.18-5.16,17.16,3,4.86,5.84,9.86,8.74,14.8,1.05,1.79.73,3.12-1,4.25-.84.55-1.71,1.06-2.55,1.61a147.08,147.08,0,0,0-26.5,22.72c-1.77,1.9-2.89,2-4.87.26-4.26-3.67-8.55-7.3-12.77-11-5.33-4.71-12.42-3.31-16.59,1a27.55,27.55,0,0,0-2.63,3.49,168.71,168.71,0,0,0-28.54,68.89A176.58,176.58,0,0,0,1097,192ZM1366,58.39a14.9,14.9,0,0,0-29.8-.36c0,8.45,6.42,15.19,14.57,15.22C1359.38,73.26,1365.95,66.86,1366,58.39ZM1163.91,86.32a14.83,14.83,0,0,0,15-14.69,14.68,14.68,0,0,0-14.77-15.08c-8.12,0-15,6.65-15,14.5A14.89,14.89,0,0,0,1163.91,86.32Zm257.23,160.82a14.77,14.77,0,0,0,14.68-15.53,14.57,14.57,0,0,0-14.75-14.11,14.94,14.94,0,0,0-14.94,15.75A14.69,14.69,0,0,0,1421.13,247.14Zm-143.66,90.37a14.74,14.74,0,0,0-14.95,14.7c-.13,7.89,6.54,14.54,14.69,14.65a14.68,14.68,0,1,0,.26-29.35Zm-173.31-84.75c-.17,7.73,6.42,14.76,14,14.93,8.53.19,15.33-6,15.52-14.19.2-8.47-6.31-15.13-15-15.33C1110.8,238,1104.36,244.48,1104.17,252.76Z" transform="translate(-44.71 13.82)"/></g><path class="cls-1" d="M316.72,136.16V101.93H135.62v60.25H282.14c18.89,0,26.74,11.05,26.74,25s-7.84,25-26.74,25H135.62v68.09H255.4v50.27H44.71V282.67H71.81c7.13,0,11.05-1.78,11.05-7.13V101.93H44.71V51.67H367.34v84.49Zm35.65-15V66.64H331.69V82L312.08,66.64H59.69V87H97.83V275.54c0,17.11-8.56,22.1-26,22.1H59.69v17.82H240.43V295.15H120.65v-98H282.14c8.2,0,11.76-4.63,11.76-10s-3.57-10-11.76-10H120.65V87H328.12c2.14,0,3.57,1.43,3.57,3.92v30.3Z" transform="translate(-44.71 13.82)"/><path class="cls-1" d="M382.66,330.44V280.18H483.19V101.93H382.66V51.67H636.48v50.27H536V280.18H636.48v50.27Zm238.85-15V295.15H531.32c-6.77,0-10.34-3.56-10.34-10.34V87H621.51V66.64H397.64V87H498.17V284.81c0,6.77-3.57,10.34-10.34,10.34H397.64v20.32Z" transform="translate(-44.71 13.82)"/><path class="cls-1" d="M939.5,136.16V101.93h-92V280.18h65.59v50.27H728.82V282.67h58.46c5,0,7.49-1.78,7.49-7.13V101.93H702.44v34.22H651.81V51.67H990.12v84.49Zm35.65-15V66.64H666.79v54.54h20.68V102.29c0-8.91,2.14-15.33,12.83-15.33H809.74V275.54c0,17.11-7.49,22.1-22.46,22.1H743.79v17.82H898.15V295.15H832.55V87H941.29c10.69,0,13.19,6.42,13.19,15.33v18.89Z" transform="translate(-44.71 13.82)"/><path class="cls-1" d="M1856.16,330.44V280.18h56.33V101.93h-25.67c-1.07,0-2.5,3.21-3.57,6.42l-59.89,222.09h-50.62l-59.89-221.74c-1.43-5-2.5-6.77-3.57-6.77h-25.67V280.18h56.33v50.27H1592.71V282.67h30.66c5,0,7.49-1.78,7.49-7.13V101.93h-38.14V51.67h128.69c19.61,0,30.66,11.05,36.72,33.51L1797.7,231l39.93-145.8c5.7-21.39,18.18-33.51,37.08-33.51h128.69v50.27h-38.14V275.54c0,5.35,2.5,7.13,7.49,7.13h30.66v47.77Zm132.26-15V297.65h-15.69c-15,0-22.46-5-22.46-22.1V87h38.14V66.64H1874.7c-11.41,0-18.54,7.49-22.46,22.1l-53.12,196.07H1797L1743.87,88.74c-3.21-11.76-9.62-22.1-22.46-22.1H1607.69V87h38.14V275.54c0,17.11-7.49,22.1-22.46,22.1h-15.69v17.82H1725V295.15h-56.33V87h40.64c11.76,0,14.62,4.63,18.18,17.82l57,210.69h27.09l57-210.69c3.57-13.19,6.42-17.82,18.18-17.82h40.64V295.15h-56.33v20.32Z" transform="translate(-44.71 13.82)"/><path class="cls-1" d="M2231.54,330.44V280.18h87.7V212.44H2133.15v67.73h87.7v50.27H2054.37V282.67h16c6.42,0,10-1.78,10-7.13V145.42c0-82,44.21-93.76,98.75-93.76h94.11c54.9,0,98.75,11.76,98.75,93.76V275.54c0,5.35,3.56,7.13,10,7.13h16v47.77Zm151.51-15V297.65H2382c-16.4,0-25-5-25-22.1V145.42c0-68.8-37.43-78.79-83.78-78.79h-94.11c-46,0-83.78,10-83.78,78.79V275.54c0,17.11-8.56,22.1-25,22.1h-1.07v17.82h136.54V295.15h-87.7V197.47h216v97.68h-87.7v20.32ZM2118.18,177.15V145.42c0-42.07,17.47-58.46,57-58.46h102c35.65,0,57,12.83,57,58.46v31.73Zm201.06-15V145.42c0-34.58-14.62-43.49-42.07-43.49h-102c-29.95,0-42.07,11.41-42.07,43.49v16.75Z" transform="translate(-44.71 13.82)"/><path class="cls-1" d="M2695.69,136.16V101.93h-92V280.18h65.59v50.27H2485V282.67h58.46c5,0,7.49-1.78,7.49-7.13V101.93h-92.33v34.22H2408V51.67h338.31v84.49Zm35.65-15V66.64H2423v54.54h20.68V102.29c0-8.91,2.14-15.33,12.83-15.33h109.44V275.54c0,17.11-7.49,22.1-22.46,22.1H2500v17.82h154.36V295.15h-65.59V87h108.73c10.69,0,13.19,6.42,13.19,15.33v18.89Z" transform="translate(-44.71 13.82)"/><path class="cls-1" d="M2761.64,330.44V280.18h100.53V101.93H2761.64V51.67h253.82v50.27H2914.94V280.18h100.53v50.27Zm238.85-15V295.15H2910.3c-6.77,0-10.34-3.56-10.34-10.34V87h100.53V66.64H2776.62V87h100.53V284.81c0,6.77-3.57,10.34-10.34,10.34h-90.19v20.32Z" transform="translate(-44.71 13.82)"/><path class="cls-1" d="M3147,330.44c-68.8,0-102-69.52-102-139.39,0-69.52,33.15-139.39,102-139.39h195.36v84.49h-50.62V101.93H3150.22c-34.58,0-52.4,44.56-52.4,89.12s17.82,89.12,52.4,89.12h192.15v50.27Zm180.38-35.29H3150.22c-44.92,0-67.38-51.69-67.38-104.09,0-51.69,22.46-104.1,67.38-104.1h152.93c2.14,0,3.56,1.43,3.56,3.92v30.3h20.68V66.64h-20.68v16l-24.24-16H3147c-58.46,0-87,62.39-87,124.42,0,62.39,28.52,124.42,87,124.42H3327.4Z" transform="translate(-44.71 13.82)"/></svg>